# xmcd
#
# Track frame offsets: 
#        150
#        9870
#        27083
#        40913
#        59131
#        82404
#        98469
#        113012
#        132332
#        146665
#        163000
#        178540
#        197470
#        211653
#        228071
#        241834
#        261229
#        276004
#        296329
#        312034
#
# Disc length: 4354 seconds
#
# Revision: 2
# Processed by: cddbd v1.5.2PL0 Copyright (c) Steve Scherf et al.
# Submitted via: ExactAudioCopy v1.3
#
DISCID=09110014
DTITLE=Various Artist - TSP Country and Americana Vol.168
DYEAR=2017
DGENRE=Country
TTITLE0=Adam J Eros - Best Time To Start
TTITLE1=Jay Garrett - Daytona Bound
TTITLE2=Zach Thomas - Dog That Done Me Wrong
TTITLE3=Jason V Chapman - Outlaw
TTITLE4=T J Doyle - Rosemary Wishes
TTITLE5=Travis Pinkham - Jesus Strong
TTITLE6=Mark Mills - Something To Do
TTITLE7=K A Patterson and The Paradise Band (feat. Mike) - The River
TTITLE8=The DSP Band (Per Oyvind Mathisen) - Strength To Carry On
TTITLE9=Adam J Eros - Sweet Lovin' Wonderful
TTITLE10=Karen Euren - Take A Chance On Tomorrow
TTITLE11=The Greatest Gift - The Lighthouse
TTITLE12=Marsha Sue Mitchell - What You Gonna Do Church
TTITLE13=K A Patterson and The Paradise Band (feat. Mike and David) - Velv
TTITLE13=et Eyes
TTITLE14=Randy Cherkis - Your Time Is Now
TTITLE15=Zach Thomas - Hold To God's Unchanging Hand
TTITLE16=Peter Beauchemin - Victory In Jesus
TTITLE17=T J Doyle - On The Horizon
TTITLE18=Randy Cherkis - You And I
TTITLE19=Scott Brandt - I'm Your Man
EXTD=
EXTT0=
EXTT1=
EXTT2=
EXTT3=
EXTT4=
EXTT5=
EXTT6=
EXTT7=
EXTT8=
EXTT9=
EXTT10=
EXTT11=
EXTT12=
EXTT13=
EXTT14=
EXTT15=
EXTT16=
EXTT17=
EXTT18=
EXTT19=
PLAYORDER=
